<mxfile host="app.diagrams.net" modified="2021-04-08T02:10:01.507Z" agent="5.0 (Macintosh; Intel Mac OS X 11_2_3) AppleWebKit/537.36 (KHTML, like Gecko) Chrome/89.0.4389.90 Safari/537.36 Edg/89.0.774.57" etag="lFzYqOpiG-9mQwQe9aif" version="14.5.8" type="github">
  <diagram name="Page-1" id="c37626ed-c26b-45fb-9056-f9ebc6bb27b6">
    <mxGraphModel dx="1298" dy="713" grid="1" gridSize="10" guides="1" tooltips="1" connect="1" arrows="1" fold="1" page="1" pageScale="1" pageWidth="1100" pageHeight="850" background="#ffffff" math="0" shadow="0">
      <root>
        <mxCell id="0" />
        <mxCell id="1" parent="0" />
        <mxCell id="LJU6qsHgKv81x3JjTnul-1" value="&lt;span style=&quot;color: rgb(25 , 25 , 25) ; font-size: 13.3333px ; background-color: rgb(255 , 255 , 255)&quot;&gt;Python3Exec-0&lt;/span&gt;" style="shape=mxgraph.cisco.hubs_and_gateways.small_hub;html=1;pointerEvents=1;dashed=0;fillColor=#036897;strokeColor=#ffffff;strokeWidth=2;verticalLabelPosition=bottom;verticalAlign=top;align=center;outlineConnect=0;" vertex="1" parent="1">
          <mxGeometry x="200.25" y="240" width="90" height="45" as="geometry" />
        </mxCell>
        <mxCell id="LJU6qsHgKv81x3JjTnul-2" value="&lt;span style=&quot;color: rgb(25 , 25 , 25) ; font-size: 13.3333px ; background-color: rgb(255 , 255 , 255)&quot;&gt;Python3Exec-1&lt;/span&gt;" style="shape=mxgraph.cisco.hubs_and_gateways.small_hub;html=1;pointerEvents=1;dashed=0;fillColor=#036897;strokeColor=#ffffff;strokeWidth=2;verticalLabelPosition=bottom;verticalAlign=top;align=center;outlineConnect=0;" vertex="1" parent="1">
          <mxGeometry x="340.25" y="240" width="90" height="45" as="geometry" />
        </mxCell>
        <mxCell id="LJU6qsHgKv81x3JjTnul-3" value="&lt;span style=&quot;color: rgb(25 , 25 , 25) ; font-size: 13.3333px ; background-color: rgb(255 , 255 , 255)&quot;&gt;Python3Exec-3&lt;/span&gt;" style="shape=mxgraph.cisco.hubs_and_gateways.small_hub;html=1;pointerEvents=1;dashed=0;fillColor=#036897;strokeColor=#ffffff;strokeWidth=2;verticalLabelPosition=bottom;verticalAlign=top;align=center;outlineConnect=0;" vertex="1" parent="1">
          <mxGeometry x="620.25" y="240" width="90" height="45" as="geometry" />
        </mxCell>
        <mxCell id="LJU6qsHgKv81x3JjTnul-4" value="&lt;span style=&quot;color: rgb(25 , 25 , 25) ; font-size: 13.3333px ; background-color: rgb(255 , 255 , 255)&quot;&gt;Python3Exec-5&lt;/span&gt;" style="shape=mxgraph.cisco.hubs_and_gateways.small_hub;html=1;pointerEvents=1;dashed=0;fillColor=#036897;strokeColor=#ffffff;strokeWidth=2;verticalLabelPosition=bottom;verticalAlign=top;align=center;outlineConnect=0;" vertex="1" parent="1">
          <mxGeometry x="200.25" y="320" width="90" height="45" as="geometry" />
        </mxCell>
        <mxCell id="LJU6qsHgKv81x3JjTnul-5" value="&lt;span style=&quot;color: rgb(25 , 25 , 25) ; font-size: 13.3333px ; background-color: rgb(255 , 255 , 255)&quot;&gt;Python3Exec-6&lt;/span&gt;" style="shape=mxgraph.cisco.hubs_and_gateways.small_hub;html=1;pointerEvents=1;dashed=0;fillColor=#036897;strokeColor=#ffffff;strokeWidth=2;verticalLabelPosition=bottom;verticalAlign=top;align=center;outlineConnect=0;" vertex="1" parent="1">
          <mxGeometry x="340.25" y="320" width="90" height="45" as="geometry" />
        </mxCell>
        <mxCell id="LJU6qsHgKv81x3JjTnul-6" value="&lt;span style=&quot;color: rgb(25 , 25 , 25) ; font-size: 13.3333px ; background-color: rgb(255 , 255 , 255)&quot;&gt;Python3Exec-7&lt;/span&gt;" style="shape=mxgraph.cisco.hubs_and_gateways.small_hub;html=1;pointerEvents=1;dashed=0;fillColor=#036897;strokeColor=#ffffff;strokeWidth=2;verticalLabelPosition=bottom;verticalAlign=top;align=center;outlineConnect=0;" vertex="1" parent="1">
          <mxGeometry x="480.25" y="320" width="90" height="45" as="geometry" />
        </mxCell>
        <mxCell id="LJU6qsHgKv81x3JjTnul-7" value="&lt;span style=&quot;color: rgb(25 , 25 , 25) ; font-size: 13.3333px ; background-color: rgb(255 , 255 , 255)&quot;&gt;Python3Exec-8&lt;/span&gt;" style="shape=mxgraph.cisco.hubs_and_gateways.small_hub;html=1;pointerEvents=1;dashed=0;fillColor=#036897;strokeColor=#ffffff;strokeWidth=2;verticalLabelPosition=bottom;verticalAlign=top;align=center;outlineConnect=0;" vertex="1" parent="1">
          <mxGeometry x="620.25" y="320" width="90" height="45" as="geometry" />
        </mxCell>
        <mxCell id="LJU6qsHgKv81x3JjTnul-8" value="&lt;span style=&quot;color: rgb(25 , 25 , 25) ; font-size: 13.3333px ; background-color: rgb(255 , 255 , 255)&quot;&gt;Python3Exec-4&lt;/span&gt;" style="shape=mxgraph.cisco.hubs_and_gateways.small_hub;html=1;pointerEvents=1;dashed=0;fillColor=#036897;strokeColor=#ffffff;strokeWidth=2;verticalLabelPosition=bottom;verticalAlign=top;align=center;outlineConnect=0;" vertex="1" parent="1">
          <mxGeometry x="760.25" y="240" width="90" height="45" as="geometry" />
        </mxCell>
        <mxCell id="LJU6qsHgKv81x3JjTnul-9" value="&lt;span style=&quot;color: rgb(25 , 25 , 25) ; font-size: 13.3333px ; background-color: rgb(255 , 255 , 255)&quot;&gt;Python3Exec-9&lt;/span&gt;" style="shape=mxgraph.cisco.hubs_and_gateways.small_hub;html=1;pointerEvents=1;dashed=0;fillColor=#036897;strokeColor=#ffffff;strokeWidth=2;verticalLabelPosition=bottom;verticalAlign=top;align=center;outlineConnect=0;" vertex="1" parent="1">
          <mxGeometry x="760.25" y="320" width="90" height="45" as="geometry" />
        </mxCell>
        <mxCell id="LJU6qsHgKv81x3JjTnul-10" style="edgeStyle=orthogonalEdgeStyle;rounded=0;orthogonalLoop=1;jettySize=auto;html=1;" edge="1" parent="1" source="LJU6qsHgKv81x3JjTnul-30" target="LJU6qsHgKv81x3JjTnul-3">
          <mxGeometry relative="1" as="geometry" />
        </mxCell>
        <mxCell id="LJU6qsHgKv81x3JjTnul-11" style="edgeStyle=orthogonalEdgeStyle;rounded=0;orthogonalLoop=1;jettySize=auto;html=1;" edge="1" parent="1" source="LJU6qsHgKv81x3JjTnul-30" target="LJU6qsHgKv81x3JjTnul-8">
          <mxGeometry relative="1" as="geometry" />
        </mxCell>
        <mxCell id="LJU6qsHgKv81x3JjTnul-12" style="edgeStyle=orthogonalEdgeStyle;rounded=0;orthogonalLoop=1;jettySize=auto;html=1;" edge="1" parent="1" source="LJU6qsHgKv81x3JjTnul-30" target="LJU6qsHgKv81x3JjTnul-2">
          <mxGeometry relative="1" as="geometry" />
        </mxCell>
        <mxCell id="LJU6qsHgKv81x3JjTnul-13" style="edgeStyle=orthogonalEdgeStyle;rounded=0;orthogonalLoop=1;jettySize=auto;html=1;" edge="1" parent="1" source="LJU6qsHgKv81x3JjTnul-30" target="LJU6qsHgKv81x3JjTnul-1">
          <mxGeometry relative="1" as="geometry" />
        </mxCell>
        <mxCell id="LJU6qsHgKv81x3JjTnul-14" style="edgeStyle=orthogonalEdgeStyle;rounded=0;orthogonalLoop=1;jettySize=auto;html=1;exitX=0;exitY=0.5;exitDx=0;exitDy=0;exitPerimeter=0;entryX=0;entryY=0.5;entryDx=0;entryDy=0;entryPerimeter=0;" edge="1" parent="1" source="LJU6qsHgKv81x3JjTnul-30" target="LJU6qsHgKv81x3JjTnul-4">
          <mxGeometry relative="1" as="geometry" />
        </mxCell>
        <mxCell id="LJU6qsHgKv81x3JjTnul-15" style="edgeStyle=orthogonalEdgeStyle;rounded=0;orthogonalLoop=1;jettySize=auto;html=1;entryX=0.99;entryY=0.5;entryDx=0;entryDy=0;entryPerimeter=0;" edge="1" parent="1" source="LJU6qsHgKv81x3JjTnul-30" target="LJU6qsHgKv81x3JjTnul-9">
          <mxGeometry relative="1" as="geometry" />
        </mxCell>
        <mxCell id="LJU6qsHgKv81x3JjTnul-16" style="edgeStyle=orthogonalEdgeStyle;rounded=0;orthogonalLoop=1;jettySize=auto;html=1;entryX=0.99;entryY=0.5;entryDx=0;entryDy=0;entryPerimeter=0;" edge="1" parent="1" source="LJU6qsHgKv81x3JjTnul-30" target="LJU6qsHgKv81x3JjTnul-5">
          <mxGeometry relative="1" as="geometry" />
        </mxCell>
        <mxCell id="LJU6qsHgKv81x3JjTnul-17" style="edgeStyle=orthogonalEdgeStyle;rounded=0;orthogonalLoop=1;jettySize=auto;html=1;entryX=0;entryY=0.5;entryDx=0;entryDy=0;entryPerimeter=0;" edge="1" parent="1" source="LJU6qsHgKv81x3JjTnul-30" target="LJU6qsHgKv81x3JjTnul-7">
          <mxGeometry relative="1" as="geometry" />
        </mxCell>
        <mxCell id="LJU6qsHgKv81x3JjTnul-18" style="edgeStyle=orthogonalEdgeStyle;rounded=0;orthogonalLoop=1;jettySize=auto;html=1;entryX=0.99;entryY=0.5;entryDx=0;entryDy=0;entryPerimeter=0;" edge="1" parent="1" source="LJU6qsHgKv81x3JjTnul-30" target="LJU6qsHgKv81x3JjTnul-6">
          <mxGeometry relative="1" as="geometry">
            <Array as="points">
              <mxPoint x="525.25" y="210" />
              <mxPoint x="590.25" y="210" />
              <mxPoint x="590.25" y="343" />
            </Array>
          </mxGeometry>
        </mxCell>
        <mxCell id="LJU6qsHgKv81x3JjTnul-19" style="edgeStyle=orthogonalEdgeStyle;rounded=0;orthogonalLoop=1;jettySize=auto;html=1;entryX=0.5;entryY=0;entryDx=0;entryDy=0;entryPerimeter=0;" edge="1" parent="1" source="LJU6qsHgKv81x3JjTnul-30" target="LJU6qsHgKv81x3JjTnul-31">
          <mxGeometry relative="1" as="geometry" />
        </mxCell>
        <mxCell id="LJU6qsHgKv81x3JjTnul-20" style="edgeStyle=orthogonalEdgeStyle;rounded=0;orthogonalLoop=1;jettySize=auto;html=1;entryX=0;entryY=0.5;entryDx=0;entryDy=0;entryPerimeter=0;" edge="1" parent="1" source="LJU6qsHgKv81x3JjTnul-30" target="LJU6qsHgKv81x3JjTnul-32">
          <mxGeometry relative="1" as="geometry" />
        </mxCell>
        <mxCell id="LJU6qsHgKv81x3JjTnul-21" style="edgeStyle=orthogonalEdgeStyle;rounded=0;orthogonalLoop=1;jettySize=auto;html=1;entryX=0;entryY=0.5;entryDx=0;entryDy=0;entryPerimeter=0;" edge="1" parent="1" source="LJU6qsHgKv81x3JjTnul-30" target="LJU6qsHgKv81x3JjTnul-35">
          <mxGeometry relative="1" as="geometry" />
        </mxCell>
        <mxCell id="LJU6qsHgKv81x3JjTnul-22" style="edgeStyle=orthogonalEdgeStyle;rounded=0;orthogonalLoop=1;jettySize=auto;html=1;entryX=0.99;entryY=0.5;entryDx=0;entryDy=0;entryPerimeter=0;" edge="1" parent="1" source="LJU6qsHgKv81x3JjTnul-30" target="LJU6qsHgKv81x3JjTnul-33">
          <mxGeometry relative="1" as="geometry" />
        </mxCell>
        <mxCell id="LJU6qsHgKv81x3JjTnul-23" style="edgeStyle=orthogonalEdgeStyle;rounded=0;orthogonalLoop=1;jettySize=auto;html=1;entryX=0.99;entryY=0.5;entryDx=0;entryDy=0;entryPerimeter=0;" edge="1" parent="1" source="LJU6qsHgKv81x3JjTnul-30" target="LJU6qsHgKv81x3JjTnul-36">
          <mxGeometry relative="1" as="geometry" />
        </mxCell>
        <mxCell id="LJU6qsHgKv81x3JjTnul-24" style="edgeStyle=orthogonalEdgeStyle;rounded=0;orthogonalLoop=1;jettySize=auto;html=1;entryX=0.99;entryY=0.5;entryDx=0;entryDy=0;entryPerimeter=0;" edge="1" parent="1" source="LJU6qsHgKv81x3JjTnul-30" target="LJU6qsHgKv81x3JjTnul-41">
          <mxGeometry relative="1" as="geometry">
            <Array as="points">
              <mxPoint x="525.25" y="210" />
              <mxPoint x="590.25" y="210" />
              <mxPoint x="590.25" y="418" />
            </Array>
          </mxGeometry>
        </mxCell>
        <mxCell id="LJU6qsHgKv81x3JjTnul-25" style="edgeStyle=orthogonalEdgeStyle;rounded=0;orthogonalLoop=1;jettySize=auto;html=1;entryX=0.99;entryY=0.5;entryDx=0;entryDy=0;entryPerimeter=0;" edge="1" parent="1" source="LJU6qsHgKv81x3JjTnul-30" target="LJU6qsHgKv81x3JjTnul-37">
          <mxGeometry relative="1" as="geometry">
            <Array as="points">
              <mxPoint x="525.25" y="210" />
              <mxPoint x="590.25" y="210" />
              <mxPoint x="590.25" y="498" />
            </Array>
          </mxGeometry>
        </mxCell>
        <mxCell id="LJU6qsHgKv81x3JjTnul-26" style="edgeStyle=orthogonalEdgeStyle;rounded=0;orthogonalLoop=1;jettySize=auto;html=1;entryX=0;entryY=0.5;entryDx=0;entryDy=0;entryPerimeter=0;" edge="1" parent="1" source="LJU6qsHgKv81x3JjTnul-30" target="LJU6qsHgKv81x3JjTnul-34">
          <mxGeometry relative="1" as="geometry" />
        </mxCell>
        <mxCell id="LJU6qsHgKv81x3JjTnul-27" style="edgeStyle=orthogonalEdgeStyle;rounded=0;orthogonalLoop=1;jettySize=auto;html=1;entryX=0;entryY=0.5;entryDx=0;entryDy=0;entryPerimeter=0;" edge="1" parent="1" source="LJU6qsHgKv81x3JjTnul-30" target="LJU6qsHgKv81x3JjTnul-38">
          <mxGeometry relative="1" as="geometry" />
        </mxCell>
        <mxCell id="LJU6qsHgKv81x3JjTnul-28" style="edgeStyle=orthogonalEdgeStyle;rounded=0;orthogonalLoop=1;jettySize=auto;html=1;entryX=0.99;entryY=0.5;entryDx=0;entryDy=0;entryPerimeter=0;" edge="1" parent="1" source="LJU6qsHgKv81x3JjTnul-30" target="LJU6qsHgKv81x3JjTnul-39">
          <mxGeometry relative="1" as="geometry" />
        </mxCell>
        <mxCell id="LJU6qsHgKv81x3JjTnul-29" style="edgeStyle=orthogonalEdgeStyle;rounded=0;orthogonalLoop=1;jettySize=auto;html=1;entryX=0.99;entryY=0.5;entryDx=0;entryDy=0;entryPerimeter=0;" edge="1" parent="1" source="LJU6qsHgKv81x3JjTnul-30" target="LJU6qsHgKv81x3JjTnul-40">
          <mxGeometry relative="1" as="geometry" />
        </mxCell>
        <mxCell id="LJU6qsHgKv81x3JjTnul-30" value="LinuxHost-0" style="shape=mxgraph.cisco.controllers_and_modules.service_module;html=1;pointerEvents=1;dashed=0;fillColor=#036897;strokeColor=#ffffff;strokeWidth=2;verticalLabelPosition=bottom;verticalAlign=top;align=center;outlineConnect=0;" vertex="1" parent="1">
          <mxGeometry x="479.75" y="60" width="90.5" height="110" as="geometry" />
        </mxCell>
        <mxCell id="LJU6qsHgKv81x3JjTnul-31" value="&lt;span style=&quot;color: rgb(25 , 25 , 25) ; font-size: 13.3333px ; background-color: rgb(255 , 255 , 255)&quot;&gt;Python3Exec-2&lt;/span&gt;" style="shape=mxgraph.cisco.hubs_and_gateways.small_hub;html=1;pointerEvents=1;dashed=0;fillColor=#036897;strokeColor=#ffffff;strokeWidth=2;verticalLabelPosition=bottom;verticalAlign=top;align=center;outlineConnect=0;" vertex="1" parent="1">
          <mxGeometry x="480.25" y="240" width="90" height="45" as="geometry" />
        </mxCell>
        <mxCell id="LJU6qsHgKv81x3JjTnul-32" value="&lt;span style=&quot;color: rgb(25 , 25 , 25) ; font-size: 13.3333px ; background-color: rgb(255 , 255 , 255)&quot;&gt;TinySim-0&lt;/span&gt;" style="shape=mxgraph.cisco.hubs_and_gateways.small_hub;html=1;pointerEvents=1;dashed=0;fillColor=#036897;strokeColor=#ffffff;strokeWidth=2;verticalLabelPosition=bottom;verticalAlign=top;align=center;outlineConnect=0;" vertex="1" parent="1">
          <mxGeometry x="200" y="395.5" width="90" height="45" as="geometry" />
        </mxCell>
        <mxCell id="LJU6qsHgKv81x3JjTnul-33" value="&lt;span style=&quot;color: rgb(25 , 25 , 25) ; font-size: 13.3333px ; background-color: rgb(255 , 255 , 255)&quot;&gt;TinySim-1&lt;/span&gt;" style="shape=mxgraph.cisco.hubs_and_gateways.small_hub;html=1;pointerEvents=1;dashed=0;fillColor=#036897;strokeColor=#ffffff;strokeWidth=2;verticalLabelPosition=bottom;verticalAlign=top;align=center;outlineConnect=0;" vertex="1" parent="1">
          <mxGeometry x="340" y="395.5" width="90" height="45" as="geometry" />
        </mxCell>
        <mxCell id="LJU6qsHgKv81x3JjTnul-34" value="&lt;span style=&quot;color: rgb(25 , 25 , 25) ; font-size: 13.3333px ; background-color: rgb(255 , 255 , 255)&quot;&gt;TinySim-3&lt;/span&gt;" style="shape=mxgraph.cisco.hubs_and_gateways.small_hub;html=1;pointerEvents=1;dashed=0;fillColor=#036897;strokeColor=#ffffff;strokeWidth=2;verticalLabelPosition=bottom;verticalAlign=top;align=center;outlineConnect=0;" vertex="1" parent="1">
          <mxGeometry x="620" y="395.5" width="90" height="45" as="geometry" />
        </mxCell>
        <mxCell id="LJU6qsHgKv81x3JjTnul-35" value="&lt;span style=&quot;color: rgb(25 , 25 , 25) ; font-size: 13.3333px ; background-color: rgb(255 , 255 , 255)&quot;&gt;TinySim-5&lt;/span&gt;" style="shape=mxgraph.cisco.hubs_and_gateways.small_hub;html=1;pointerEvents=1;dashed=0;fillColor=#036897;strokeColor=#ffffff;strokeWidth=2;verticalLabelPosition=bottom;verticalAlign=top;align=center;outlineConnect=0;" vertex="1" parent="1">
          <mxGeometry x="200" y="475.5" width="90" height="45" as="geometry" />
        </mxCell>
        <mxCell id="LJU6qsHgKv81x3JjTnul-36" value="&lt;span style=&quot;color: rgb(25 , 25 , 25) ; font-size: 13.3333px ; background-color: rgb(255 , 255 , 255)&quot;&gt;TinySim-6&lt;/span&gt;" style="shape=mxgraph.cisco.hubs_and_gateways.small_hub;html=1;pointerEvents=1;dashed=0;fillColor=#036897;strokeColor=#ffffff;strokeWidth=2;verticalLabelPosition=bottom;verticalAlign=top;align=center;outlineConnect=0;" vertex="1" parent="1">
          <mxGeometry x="340" y="475.5" width="90" height="45" as="geometry" />
        </mxCell>
        <mxCell id="LJU6qsHgKv81x3JjTnul-37" value="&lt;span style=&quot;color: rgb(25 , 25 , 25) ; font-size: 13.3333px ; background-color: rgb(255 , 255 , 255)&quot;&gt;TinySim-7&lt;/span&gt;" style="shape=mxgraph.cisco.hubs_and_gateways.small_hub;html=1;pointerEvents=1;dashed=0;fillColor=#036897;strokeColor=#ffffff;strokeWidth=2;verticalLabelPosition=bottom;verticalAlign=top;align=center;outlineConnect=0;" vertex="1" parent="1">
          <mxGeometry x="480" y="475.5" width="90" height="45" as="geometry" />
        </mxCell>
        <mxCell id="LJU6qsHgKv81x3JjTnul-38" value="&lt;span style=&quot;color: rgb(25 , 25 , 25) ; font-size: 13.3333px ; background-color: rgb(255 , 255 , 255)&quot;&gt;TinySim-8&lt;/span&gt;" style="shape=mxgraph.cisco.hubs_and_gateways.small_hub;html=1;pointerEvents=1;dashed=0;fillColor=#036897;strokeColor=#ffffff;strokeWidth=2;verticalLabelPosition=bottom;verticalAlign=top;align=center;outlineConnect=0;" vertex="1" parent="1">
          <mxGeometry x="620" y="475.5" width="90" height="45" as="geometry" />
        </mxCell>
        <mxCell id="LJU6qsHgKv81x3JjTnul-39" value="&lt;span style=&quot;color: rgb(25 , 25 , 25) ; font-size: 13.3333px ; background-color: rgb(255 , 255 , 255)&quot;&gt;TinySim-4&lt;/span&gt;" style="shape=mxgraph.cisco.hubs_and_gateways.small_hub;html=1;pointerEvents=1;dashed=0;fillColor=#036897;strokeColor=#ffffff;strokeWidth=2;verticalLabelPosition=bottom;verticalAlign=top;align=center;outlineConnect=0;" vertex="1" parent="1">
          <mxGeometry x="760" y="395.5" width="90" height="45" as="geometry" />
        </mxCell>
        <mxCell id="LJU6qsHgKv81x3JjTnul-40" value="&lt;span style=&quot;color: rgb(25 , 25 , 25) ; font-size: 13.3333px ; background-color: rgb(255 , 255 , 255)&quot;&gt;TinySim-9&lt;/span&gt;" style="shape=mxgraph.cisco.hubs_and_gateways.small_hub;html=1;pointerEvents=1;dashed=0;fillColor=#036897;strokeColor=#ffffff;strokeWidth=2;verticalLabelPosition=bottom;verticalAlign=top;align=center;outlineConnect=0;" vertex="1" parent="1">
          <mxGeometry x="760" y="475.5" width="90" height="45" as="geometry" />
        </mxCell>
        <mxCell id="LJU6qsHgKv81x3JjTnul-41" value="&lt;span style=&quot;color: rgb(25 , 25 , 25) ; font-size: 13.3333px ; background-color: rgb(255 , 255 , 255)&quot;&gt;TinySim-2&lt;/span&gt;" style="shape=mxgraph.cisco.hubs_and_gateways.small_hub;html=1;pointerEvents=1;dashed=0;fillColor=#036897;strokeColor=#ffffff;strokeWidth=2;verticalLabelPosition=bottom;verticalAlign=top;align=center;outlineConnect=0;" vertex="1" parent="1">
          <mxGeometry x="480" y="395.5" width="90" height="45" as="geometry" />
        </mxCell>
      </root>
    </mxGraphModel>
  </diagram>
</mxfile>
